Coordinates
version=1
nRows=17
nColumns=38
inDegrees=no

Units are S.I. units (second, meters, Newtons, ...)
If the header above contains a line with 'inDegrees', this indicates whether rotational values are in degrees (yes) or radians (no).

endheader
time	pelvis_tilt	pelvis_list	pelvis_rotation	pelvis_tx	pelvis_ty	pelvis_tz	hip_flexion_r	hip_adduction_r	hip_rotation_r	knee_angle_r	ankle_angle_r	subtalar_angle_r	mtp_angle_r	hip_flexion_l	hip_adduction_l	hip_rotation_l	knee_angle_l	ankle_angle_l	subtalar_angle_l	mtp_angle_l	lumbar_extension	lumbar_bending	lumbar_rotation	arm_flex_r	arm_add_r	arm_rot_r	elbow_flex_r	pro_sup_r	wrist_flex_r	wrist_dev_r	arm_flex_l	arm_add_l	arm_rot_l	elbow_flex_l	pro_sup_l	wrist_flex_l	wrist_dev_l
0	-2.75333	1.32044	-2.07308	0.863787	-0.647409	0.92336	-0.191984	-0.29207	-0.223758	1.05629	-0.0934453	0	0	0.105272	0.126268	-0.362775	0.318685	-0.0251263	0	0	-0.181189	-0.147033	0.210012	0.247155	-0.465085	-0.0428557	1.69292	0.468882	0	0	0.302592	-0.360775	-0.146424	1.767	0.463442	0	0
0.01	-2.7536	1.31304	-2.06621	0.862149	-0.634785	0.92501	-0.161141	-0.309663	-0.222433	1.08908	-0.253448	0	0	0.0803868	0.137884	-0.347137	0.310792	-0.0224142	0	0	-0.188821	-0.148303	0.200378	0.244989	-0.469942	-0.0400972	1.699	0.467464	0	0	0.30161	-0.367003	-0.142739	1.76914	0.457352	0	0
0.02	-2.7593	1.31076	-2.06	0.86192	-0.62303	0.926253	-0.104944	-0.307864	-0.166475	1.19363	-0.213598	0	0	0.0651832	0.140127	-0.342091	0.313508	-0.015668	0	0	-0.193404	-0.148224	0.196618	0.24609	-0.470323	-0.0384108	1.70257	0.465876	0	0	0.301599	-0.37391	-0.138951	1.77381	0.452228	0	0
0.03	-2.75588	1.30511	-2.0605	0.861324	-0.610871	0.927556	-0.0654193	-0.311849	-0.120514	1.26958	-0.246808	0	0	0.0460412	0.147607	-0.33283	0.313203	-0.0103087	0	0	-0.199942	-0.151592	0.189821	0.247231	-0.469108	-0.0382582	1.70745	0.465119	0	0	0.296147	-0.381335	-0.15953	1.79717	0.456239	0	0
0.04	-2.82241	1.29809	-1.99165	0.861931	-0.598942	0.931118	-0.0303817	-0.293196	-0.161105	1.27676	-0.0394002	0	0	0.014991	0.133548	-0.327993	0.313396	-0.00236836	0	0	-0.216365	-0.138535	0.185257	0.24851	-0.465381	-0.0408231	1.709	0.464118	0	0	0.3015	-0.384187	-0.136207	1.78461	0.451576	0	0
0.05	-2.80383	1.29946	-2.01048	0.861937	-0.586716	0.931587	0.0362242	-0.298151	-0.102026	1.41782	0.523599	0	0	0.00291552	0.14084	-0.322515	0.311298	0.00561732	0	0	-0.211859	-0.143646	0.184247	0.245641	-0.460598	-0.0468879	1.714	0.463057	0	0	0.301576	-0.390433	-0.132776	1.79047	0.435813	0	0
0.06	-2.82871	1.29084	-1.97729	0.860298	-0.573777	0.934715	0.0353299	-0.296105	-0.106935	1.38139	-0.0399369	0	0	-0.0318747	0.143965	-0.306715	0.297813	0.00948536	0	0	-0.222445	-0.137065	0.173348	0.244229	-0.459077	-0.0496419	1.71713	0.46257	0	0	0.298096	-0.38911	-0.13535	1.79434	0.432433	0	0
0.07	-2.84544	1.2884	-1.9555	0.85945	-0.561471	0.936953	0.0672653	-0.291101	-0.091814	1.41793	-0.00494227	0	0	-0.0562414	0.143504	-0.299228	0.289985	0.016325	0	0	-0.225907	-0.131225	0.165794	0.243763	-0.456157	-0.051721	1.71829	0.463261	0	0	0.295418	-0.388967	-0.136641	1.79699	0.433462	0	0
0.08	-2.85179	1.28511	-1.94174	0.857593	-0.549018	0.939242	0.0926169	-0.297043	-0.0812508	1.42481	-0.0444443	0	0	-0.0827391	0.148556	-0.286892	0.276464	0.0183447	0	0	-0.228656	-0.126522	0.155504	0.243309	-0.45553	-0.0525745	1.71894	0.465081	0	0	0.291618	-0.386875	-0.138425	1.7987	0.437318	0	0
0.09	-2.87528	1.28385	-1.91148	0.856639	-0.537312	0.94159	0.122512	-0.288462	-0.0762652	1.44255	-0.0103548	0	0	-0.105259	0.144136	-0.280754	0.26903	0.0225782	0	0	-0.232326	-0.117619	0.145971	0.245077	-0.453917	-0.0522418	1.71865	0.462844	0	0	0.289634	-0.385469	-0.143018	1.80051	0.435548	0	0
0.1	-2.89858	1.28341	-1.8804	0.855635	-0.525739	0.943716	0.150789	-0.279888	-0.0736526	1.45435	0.0149967	0	0	-0.126343	0.138812	-0.272075	0.261466	0.0277652	0	0	-0.234855	-0.108276	0.136297	0.246527	-0.45349	-0.0517785	1.71815	0.459875	0	0	0.288734	-0.384669	-0.145841	1.80215	0.434421	0	0
0.11	-2.92194	1.28282	-1.84779	0.854568	-0.514345	0.945773	0.176441	-0.272046	-0.0754131	1.45935	0.0394771	0	0	-0.145724	0.132491	-0.26277	0.256994	0.0322227	0	0	-0.237407	-0.0988468	0.126347	0.247564	-0.454016	-0.0526772	1.71695	0.461797	0	0	0.289968	-0.384226	-0.145445	1.80208	0.435094	0	0
0.12	-2.94539	1.2818	-1.81394	0.853453	-0.503091	0.94772	0.199145	-0.264884	-0.0807756	1.4575	0.0615977	0	0	-0.164733	0.125753	-0.252624	0.253028	0.0363194	0	0	-0.240495	-0.0892335	0.115468	0.249235	-0.455346	-0.0523709	1.71625	0.461825	0	0	0.2922	-0.384743	-0.143032	1.80166	0.437307	0	0
0.13	-2.96683	1.28075	-1.78203	0.852396	-0.491846	0.94951	0.219963	-0.258796	-0.0879097	1.44977	0.0814737	0	0	-0.183249	0.11926	-0.242943	0.248848	0.0402798	0	0	-0.243255	-0.0801885	0.104567	0.250821	-0.457101	-0.0516962	1.71565	0.461164	0	0	0.294806	-0.385848	-0.140614	1.80195	0.439317	0	0
0.14	-2.98664	1.28066	-1.75371	0.851641	-0.480418	0.951064	0.240745	-0.252827	-0.094708	1.43639	0.0994401	0	0	-0.201089	0.112934	-0.235944	0.243614	0.0440617	0	0	-0.244185	-0.0719246	0.095642	0.251453	-0.458708	-0.0514924	1.71593	0.459065	0	0	0.296246	-0.386383	-0.14236	1.8042	0.435633	0	0
0.15	-3.00696	1.27909	-1.72435	0.850908	-0.469251	0.95261	0.257746	-0.247381	-0.10377	1.41697	0.117851	0	0	-0.220043	0.106271	-0.227565	0.238284	0.0474483	0	0	-0.247446	-0.0637822	0.0864474	0.252733	-0.460383	-0.0514593	1.71745	0.452842	0	0	0.299087	-0.387351	-0.141737	1.80606	0.431316	0	0
0.16	-3.02655	1.27637	-1.69532	0.850154	-0.458302	0.954118	0.27132	-0.242513	-0.115018	1.39226	0.137962	0	0	-0.239883	0.0996374	-0.217295	0.232523	0.0505386	0	0	-0.25236	-0.055963	0.077661	0.254253	-0.461815	-0.0535304	1.71793	0.451391	0	0	0.304073	-0.388993	-0.135612	1.80617	0.432122	0	0
